<svg width="686" height="548" viewBox="0 0 686 548" fill="none" xmlns="http://www.w3.org/2000/svg">
<g id="Illustration">
<g id="Person / Man / 6">
<g id="Man / Head / 1">
<g id="Group 30">
<path id="Fill 1" fill-rule="evenodd" clip-rule="evenodd" d="M214.341 82.8159C214.341 90.3266 209.435 96.4149 203.384 96.4149C197.333 96.4149 192.427 90.3266 192.427 82.8159C192.427 75.3053 197.333 69.2169 203.384 69.2169C209.435 69.2169 214.341 75.3053 214.341 82.8159Z" fill="#19141E"/>
<g id="Face color">
<path id="Face" d="M188.412 136.689L187.954 121.069C187.954 121.069 189.599 121.199 192.03 121.329C204.261 121.983 213.041 113.442 213.264 101.196C213.393 94.1504 212.777 86.5043 210.337 80.7457L210.216 80.1943L169.619 75.5093L167.343 98.4933C165.976 94.5137 154.69 90.0011 151.74 95.6999C145.346 108.048 168.206 116.363 168.206 116.363L165.885 136.876" fill="#FFCCD7"/>
<path id="Path" d="M156.197 100.525L164.268 106.484" stroke="#0C092A"/>
</g>
<path id="Fill 5" opacity="0.398926" fill-rule="evenodd" clip-rule="evenodd" d="M187.954 121.069L174.981 118.325L187.892 126.929L187.954 121.069Z" fill="#0C092A"/>
<path id="Path_2" d="M198.498 96.6554L201.539 107.347L197.171 108.531" stroke="#001833" stroke-linecap="square"/>
<path id="Fill 9" fill-rule="evenodd" clip-rule="evenodd" d="M193.543 98.6175C193.81 100.074 192.83 101.467 191.355 101.73C189.879 101.994 188.466 101.027 188.199 99.5712C187.932 98.1151 188.912 96.7214 190.388 96.4578C191.864 96.1948 193.276 97.1614 193.543 98.6175Z" fill="#001833"/>
<path id="Fill 11" fill-rule="evenodd" clip-rule="evenodd" d="M208.607 98.6175C208.874 100.074 207.894 101.467 206.418 101.73C204.942 101.994 203.529 101.027 203.263 99.5712C202.996 98.1151 203.975 96.7214 205.451 96.4578C206.927 96.1948 208.34 97.1614 208.607 98.6175Z" fill="#001833"/>
<path id="Hair" d="M170.358 102.416C166.509 95.9166 160.94 93.9345 158.44 93.3532C157.443 90.5101 156.683 87.2129 156.149 83.7062C154.717 74.3208 161.633 65.7579 167.22 63.2991C172.875 60.8108 182.626 57.3625 196.899 62.0433C206.494 65.1923 212.628 57.6531 218.274 60.8731C227.923 66.3768 218.948 90.4724 194.483 84.3512C176.982 79.9725 176.532 81.0708 176.382 84.2537C175.897 94.5417 174.271 100.594 170.358 102.416Z" fill="#001833"/>
<g id="Group 21">
<path id="Stroke 20" d="M190.497 110.456C190.497 110.456 192.412 114.523 196.55 114.427" stroke="#001833"/>
</g>
<path id="Stroke 22" fill-rule="evenodd" clip-rule="evenodd" d="M197.022 98.7468C197.022 102.132 194.241 104.876 190.809 104.876C187.378 104.876 184.597 102.132 184.597 98.7468C184.597 95.3618 187.378 92.6176 190.809 92.6176C194.241 92.6176 197.022 95.3618 197.022 98.7468Z" stroke="#001833"/>
<path id="Stroke 24" fill-rule="evenodd" clip-rule="evenodd" d="M212.665 98.7468C212.665 102.132 209.883 104.876 206.452 104.876C203.021 104.876 200.239 102.132 200.239 98.7468C200.239 95.3618 203.021 92.6176 206.452 92.6176C209.883 92.6176 212.665 95.3618 212.665 98.7468Z" stroke="#001833"/>
<path id="Stroke 26" d="M199.733 99.0326H197.047" stroke="#001833" stroke-width="4"/>
<path id="Stroke 28" d="M184.596 98.7485H169.249" stroke="#001833"/>
</g>
</g>
<g id="Man / Legs / 1">
<g id="Group 23">
<g id="Shoes">
<path id="Shoes_2" fill-rule="evenodd" clip-rule="evenodd" d="M204.388 487.734L204.539 474.924L187.773 466.605L185.34 503.225H243.427C233.544 492.257 204.388 487.734 204.388 487.734ZM129.982 488.234L130.133 473.846L119.202 482.613L110.407 487.438L107.504 503.225H147.26C142.262 489.813 129.982 488.234 129.982 488.234Z" fill="#0D0B6D"/>
</g>
<g id="Leg skin">
<path id="Skin" fill-rule="evenodd" clip-rule="evenodd" d="M130.133 473.846L113.367 468.882L110.406 487.437L129.982 488.233L130.133 473.846ZM204.539 474.925L187.773 469.962L186.422 486.938L204.388 487.734L204.539 474.925Z" fill="#FFCCD7"/>
</g>
<g id="Pants">
<path id="Pants_2" d="M206.942 470.725L206.555 482.613H184.44L184.828 470.689C182.35 469.71 180.58 467.355 180.52 464.573L176.96 286.504L138.496 466.28C137.954 468.809 136.05 470.773 133.632 471.497L132.186 482.613H108.998L110.993 470.34C109.062 468.866 107.943 466.441 108.328 463.85L143.741 225.58L175.742 225.58L175.74 225.489H214.5L212.177 464.24C212.144 467.38 209.927 470.006 206.942 470.725Z" fill="#09074A"/>
</g>
<path id="Fill 15" opacity="0.197824" fill-rule="evenodd" clip-rule="evenodd" d="M176.764 289.326L183.55 259.688L178.444 349.541L176.764 289.326Z" fill="#0C092A"/>
<g id="Pants line">
<path id="Pants line_2" d="M152.02 225.806L155.734 226.403L115.228 469.218L111.503 468.605L152.02 225.806Z" fill="#EFEFEF"/>
</g>
</g>
</g>
<g id="Man / Body / 5">
<g id="Group 18">
<g id="Skin color">
<path id="Skin_2" fill-rule="evenodd" clip-rule="evenodd" d="M267.738 143.906L267.472 139.385C267.472 139.385 267.477 136.239 267.892 132.844C267.997 131.992 268.225 131.101 268.47 130.149L268.47 130.149C269.199 127.308 270.067 123.928 268.169 119.437C265.636 113.448 271.692 117.583 273.033 120.432C273.552 121.533 273.703 123.198 273.852 124.848V124.849C274.025 126.758 274.197 128.65 274.933 129.63C276.094 129.01 276.865 128.203 276.865 128.203L289.92 111.63C290.34 111.073 291.118 110.906 291.74 111.234L292.443 111.609C293.182 112.005 293.417 112.932 292.943 113.609C292.037 114.91 290.456 117.105 288.804 119.398C285.805 123.56 282.572 128.049 282.709 128.12L283.055 128.531L298.387 112.708C298.866 112.182 299.67 112.089 300.261 112.49L301.181 113.115C301.852 113.568 301.996 114.474 301.495 115.099C299.86 117.165 295.813 121.64 292.444 125.366L292.444 125.366L292.443 125.366C289.528 128.589 287.121 131.251 287.222 131.307L287.68 131.739L301.953 119.401C302.459 118.849 303.321 118.786 303.906 119.25L304.603 119.807C305.215 120.292 305.306 121.172 304.806 121.765L291.325 134.172L291.714 134.771L303.417 126.724C303.954 126.255 304.763 126.255 305.306 126.719L305.63 127.005C306.205 127.505 306.269 128.364 305.769 128.943C304.972 129.865 303.395 131.077 301.516 132.522L301.516 132.522L301.516 132.522C299.353 134.184 296.788 136.155 294.55 138.349C293.318 139.557 292.324 140.741 291.316 141.941L291.316 141.941C289.671 143.901 287.991 145.903 285.178 148.119C283.5 149.447 281.98 150.219 280.535 150.954C280.33 151.058 280.127 151.161 279.925 151.265L267.738 143.906ZM162.518 133.534C162.518 133.534 171.537 133.516 178.046 133.495C184.555 133.473 192.74 136.166 192.74 136.166C192.74 136.166 196.999 145.581 182.204 144.728C167.409 143.875 162.518 133.534 162.518 133.534ZM113.186 171.631C113.186 171.631 98.7485 192.955 99.0758 204.813C99.4622 218.795 144.882 253.151 144.882 253.151L156.654 243.717L128.06 204.493L138.458 182.698L113.186 171.631Z" fill="#FFCCD7"/>
</g>
<g id="Sweater color">
<path id="Sweater" d="M153.234 226.62L160.266 235.903L139.087 254.065C139.087 254.065 100.222 226.039 99.0221 204.066C98.2579 190.07 110.703 170.091 110.703 170.091C110.703 170.091 126.324 145.529 144.382 137.239C148.087 135.538 157.072 134.119 162.518 133.534C164.188 133.354 163.19 133.994 163.763 135.077C164.361 136.209 166.184 137.886 167.445 139.139C170.069 141.747 175.241 143.723 178.019 144.127C180.137 144.435 184.228 144.913 186.197 144.653C188.165 144.393 190.305 143.519 190.877 142.999C191.448 142.48 192.299 141.83 192.741 140.829C193.182 139.828 193.159 140.115 193.159 139.192C193.159 138.268 193.111 138.405 193.019 137.965C192.927 137.526 192.927 137.262 192.873 137.035C192.633 136.03 192.741 136.166 192.741 136.166C203.4 139.334 208.8 140.506 212.683 145.114L242.36 165.604L262.666 139.536L288.866 156.844C288.866 156.844 265.668 199.365 248.856 204.066C235.313 207.852 221.594 196.076 216.77 191.352L222.501 219.976C223.42 224.919 219.021 226.789 215.102 226.614L153.234 226.62Z" fill="#9087E5"/>
</g>
<path id="Fill 9_2" opacity="0.201242" fill-rule="evenodd" clip-rule="evenodd" d="M216.68 191.369L213.133 177.578L222.71 196.425L216.68 191.369Z" fill="#0C092A"/>
<path id="Stroke 16" opacity="0.200591" d="M150.604 223.296L134.065 200.219L154.044 170.412" stroke="#0C092A" stroke-width="5"/>
</g>
</g>
</g>
<g id="Person / Man / 3">
<g id="Man / Head / 1_2">
<g id="Group 21_2">
<g id="Face color_2">
<path id="Face_2" d="M497.839 145.563L498.295 130.18C498.295 130.18 496.779 130.298 494.51 130.422C482.201 131.09 473.394 122.482 473.425 110.155C473.441 103.627 474.101 96.3702 476.181 89.924L516.507 85.3099L519.376 107.993C520.734 104.074 531.337 99.5824 534.268 105.195C540.618 117.356 517.911 125.545 517.911 125.545L520.217 145.748" fill="#FFCCD7"/>
<path id="Path_3" d="M529.461 110.456L521.391 114.428" stroke="#0C092A" stroke-linecap="square"/>
</g>
<path id="Path_4" d="M488.594 106.534L487.107 113.655L490.298 114.264" stroke="#001833" stroke-linecap="square"/>
<path id="Fill 4" opacity="0.399344" fill-rule="evenodd" clip-rule="evenodd" d="M498.295 130.18L511.181 127.477L498.357 135.951L498.295 130.18Z" fill="#0C092A"/>
<path id="Fill 8" fill-rule="evenodd" clip-rule="evenodd" d="M494.76 106.082C494.495 107.516 495.469 108.889 496.934 109.148C498.4 109.407 499.803 108.455 500.069 107.021C500.334 105.587 499.36 104.215 497.895 103.955C496.428 103.696 495.025 104.648 494.76 106.082Z" fill="#001833"/>
<path id="Fill 10" fill-rule="evenodd" clip-rule="evenodd" d="M478.738 106.082C478.472 107.516 479.446 108.889 480.912 109.148C482.378 109.407 483.781 108.455 484.046 107.021C484.312 105.587 483.338 104.215 481.872 103.955C480.406 103.696 479.003 104.648 478.738 106.082Z" fill="#001833"/>
<g id="Group 15">
<path id="Stroke 14" d="M495.161 118.401C495.161 118.401 492.454 122.717 487.091 122.351" stroke="#001833"/>
</g>
<path id="Hair_2" d="M526.998 103.145C528.788 96.6308 535.269 72.5867 534.505 68.4821C533.621 63.7251 530.236 57.8854 512.841 51.7604C498.103 46.5709 489.789 50.3287 487.271 53.5261C483.439 58.3913 476.181 89.9243 476.181 89.9243C476.181 89.9243 482.187 94.1047 503.483 93.3837C503.483 93.3837 500.535 105.925 512.62 105.204C512.62 105.204 511.325 109.427 517.173 110.756C520.382 105.875 524.64 103.902 526.998 103.145Z" fill="#001833"/>
</g>
</g>
<g id="Man / Legs / 1_2">
<g id="Group 20">
<g id="Shoes_3">
<path id="Shoes_4" fill-rule="evenodd" clip-rule="evenodd" d="M603.892 451.585L587.692 436.956L593.32 422.16L627.991 447.51L599.905 495.785C599.905 495.785 599.003 483.788 600.471 470.499C601.486 461.319 603.892 451.585 603.892 451.585ZM447.788 483.543L451.488 471.799L467.153 472.613L454.116 504.867L404.035 476.298C418.897 471.868 447.788 483.543 447.788 483.543Z" fill="#0D0B6D"/>
</g>
<g id="Skin legs">
<path id="Skin_3" fill-rule="evenodd" clip-rule="evenodd" d="M591.775 440.684L593.557 422.146L613.512 437.017L603.892 451.585L591.775 440.684ZM450.836 473.783L466.324 475.157L460.607 488.808L447.788 483.543L450.836 473.783Z" fill="#FFCCD7"/>
</g>
<g id="Pants_3">
<path id="Pants_4" d="M480.184 286.87L436.98 477.068L448.88 480.057H448.885L462.738 483.542L462.807 483.558L467.602 484.763C467.602 484.763 489.614 416.394 508.991 355.401C513.707 362.96 519.018 370.431 524.995 377.698C567.458 429.326 593.44 451.395 593.44 451.395L597.304 445.661L597.314 445.645L606.601 431.867L613.317 421.903C613.317 421.903 555.17 367.864 529.007 291.847C533.606 277.046 536.793 266.481 537.612 263.101C542.301 243.824 542.397 234.991 542.397 234.287H492.126L471.966 234.287C472.701 246.849 474.728 265.532 480.183 286.869L480.184 286.87Z" fill="#B9B2F0"/>
</g>
<g id="Overlay">
<path id="Mask" fill-rule="evenodd" clip-rule="evenodd" d="M436.979 477.068L448.879 480.057H448.884L462.737 483.542L462.807 483.558L467.602 484.763C467.602 484.763 489.613 416.393 508.991 355.401C516.554 331.59 523.712 308.906 529.006 291.847C533.605 277.046 536.793 266.481 537.612 263.101C542.301 243.824 542.396 234.991 542.396 234.287H492.125L480.183 286.869L436.979 477.068Z" fill="#B9B2F0"/>
</g>
</g>
</g>
<g id="Man / Body / 5_2">
<g id="Group 25">
<g id="Hands">
<path id="Mask_2" fill-rule="evenodd" clip-rule="evenodd" d="M454.94 245.254C454.94 245.254 462.109 246.112 463.473 249.165C467.376 257.899 459.289 273.513 459.289 273.513C459.289 273.513 462.715 271.524 463.397 273.263C463.701 274.038 464.388 280.223 451.551 280.64C450.188 280.684 446.91 278.046 446.91 278.046C446.91 278.046 449.3 282.39 445.64 283.243C445.64 283.243 439.74 274.832 439.65 272.96C439.56 271.088 441.453 261.613 442.477 259.699C443.501 257.786 454.94 245.254 454.94 245.254ZM551.883 260.49C553.126 256.994 554.229 255.14 554.229 255.14L572.946 256.005C574.847 261.16 575.053 262.931 575.517 266.923C575.538 267.103 575.559 267.288 575.581 267.477C576.006 271.114 576.035 274.769 574.59 279.636C573.662 282.762 572.671 285.42 572.155 285.308C570.854 285.026 570.805 283.433 570.805 283.433L571.418 280.473L571.696 277.582C571.696 277.582 567.078 290.38 566.687 290.309C565.303 290.06 565.083 287.817 565.083 287.817C565.083 287.817 563.636 292.234 562.908 292.074C561.055 291.667 561.23 289.621 561.23 289.621C561.23 289.621 560.645 290.11 560.196 289.985C558.518 289.524 558.568 286.688 558.597 285.025C558.6 284.892 558.602 284.766 558.603 284.65C558.603 284.65 559.346 279.417 559.195 277.805C558.421 269.589 557.089 267.634 556.358 266.563C556.289 266.462 556.225 266.368 556.168 266.278C555.021 267.022 554.596 268.298 554.145 269.653C553.818 270.638 553.476 271.664 552.833 272.558C550.875 275.279 545.416 277.85 548.468 271.616C550.163 268.155 550.584 266.026 550.975 264.049C551.205 262.89 551.424 261.782 551.883 260.49Z" fill="#FFCCD7"/>
</g>
<path id="Stroke 4" opacity="0.150646" d="M456.667 256.537C456.667 256.537 454.866 263.013 448.684 265.031C446.522 265.736 447.062 274.066 441.763 273.069" stroke="#0C092A" stroke-width="3"/>
<g id="Shirt">
<path id="Shirt_2" fill-rule="evenodd" clip-rule="evenodd" d="M522.019 145.926L519.637 136.119L509.28 136.749L502.16 145.374L497.53 137.457L494.225 137.66L493.198 146.817C478.122 152.476 475.492 158.012 472.193 164.957C471.838 165.703 471.475 166.467 471.089 167.248C466.738 176.041 472.049 237.073 472.049 237.073L537.353 234.127C537.353 234.127 528.504 146.589 522.708 145.994C522.479 145.97 522.249 145.948 522.019 145.926Z" fill="#EFEFEF"/>
</g>
<path id="Stroke 8" d="M473.375 237.177L470.312 188.909" stroke="#12173A" stroke-width="5"/>
<g id="Coat">
<path id="Coat_2" fill-rule="evenodd" clip-rule="evenodd" d="M551.618 273.868L556.268 294.596L521.316 297.401C521.316 297.401 518.314 198.196 518.609 169.03C518.744 155.674 522.708 145.999 522.708 145.999C522.708 145.999 538.242 150.473 541.763 152.762C550.06 158.154 568.093 183.988 571.302 197.644C576.342 219.081 575.821 256.138 575.821 256.138L549.349 254.914L541.723 214.644L540.559 224.953L550.176 267.589C549.845 268.652 549.57 269.455 549.349 269.997C548.245 272.713 547.612 274.294 547.745 274.885C547.869 275.434 548.413 275.763 549.746 275.094C550.099 274.917 550.723 274.508 551.618 273.868ZM470.1 254.92L466.497 262.273L443.336 249.659L462.229 203.045C462.229 203.045 467.143 166.94 470.105 162.12C475.833 152.798 493.085 146.863 493.085 146.863C493.085 146.863 493.08 146.868 493.08 146.873C492.909 147.305 492.77 149.807 492.461 155.413C492.251 159.203 491.964 164.412 491.535 171.361C490.585 186.726 481.579 297.003 481.579 297.003L469.121 295.559L470.1 254.92Z" fill="#09074A"/>
</g>
<g id="Lapel">
<path id="Shape" fill-rule="evenodd" clip-rule="evenodd" d="M534.77 176.339L519.051 209.021C519.051 209.021 518.588 173.07 518.802 164.421C518.953 158.334 522.707 145.999 522.707 145.999L528.947 151.058C532.908 154.269 533.927 159.807 531.361 164.169L531.278 164.31L532.543 165.432C535.655 168.193 536.559 172.619 534.77 176.339ZM493.085 146.863L488.694 208.711L477.234 178.27C475.57 173.848 476.91 168.878 480.588 165.835L481.076 165.432L480.858 164.327C480.035 160.175 481.623 155.918 484.986 153.262L493.085 146.863Z" fill="#0C092A"/>
</g>
<path id="Stroke 23" opacity="0.197498" d="M541.848 215.304L540.309 207.784L532.527 193.721" stroke="#0C092A" stroke-width="5"/>
</g>
</g>
</g>
</g>
</svg>
